<?xml version="1.0" encoding="UTF-8"?>
<svg id="Layer_1" xmlns="http://www.w3.org/2000/svg" xmlns:xlink="http://www.w3.org/1999/xlink" viewBox="0 0 2604.67 1151.59">
  <defs>
    <style>
      .cls-1 {
        fill: #4c423e;
      }

      .cls-2 {
        fill: none;
      }

      .cls-3 {
        fill: #71685f;
      }

      .cls-4 {
        fill: #a3add8;
      }

      .cls-5 {
        clip-path: url(#clippath);
      }
    </style>
    <clipPath id="clippath">
      <rect class="cls-2" x="0" width="2604.67" height="1151.59"/>
    </clipPath>
  </defs>
  <g class="cls-5">
    <path class="cls-1" d="M20.97,257.12c-2.55-40.08,10-70.74,88.12-64.38,89.57,7.29,164.24,1.03,216.53,5.08,62.58,4.86,31.16,73.6,18.46,146.12-9.52,54.46-19.68,101.14-18.29,153.99,3.93,148.42,155.23,130.89,126.53-83.14-6.81-50.86-20.64-103.46-15.32-155.6,1.35-39.68,21.7-65.32,67.58-65.02,63.06-2.96,145.19-1.89,207.42-.68,51.76.89,55.77,21.01,76.61,56.47,10.38,17.66-37.76,145.26-43.98,194.46-9.74,77.03-15.27,124.16-15.39,153.81-.37,91.05,12.52,152.19,11.95,246.16-.93,34.79.22,130.65,5.36,161.95,11.41,69.56,28.85,77.85,28.08,114.83-.69,33.11-9.35,30.41-64.62,30.33-43.72-.08-88.81-4.55-133.46-4.88-54.25-.4,1.92.09-94-.68-52.86-.42-33.14-116.52-18.47-162.58,13.75-43.35,21.95-123.74,5.04-168.64-18.61-53.92-113.99-56.38-136.91-4.42-20.51,46.3-2.58,96.77,3.91,142.73,7.66,54.14,25.39,124.78,7.39,179.57l-6.72,7.1c-4.67,4.95-11.58,7.5-18.63,6.79-54.22-5.38-145.65-4.53-208.9-1.09-.76.05-1.54.04-2.3,0-33.31-1.84-48.77,2.83-90.13-9.24-28.18-8.23-15.37-54.87-2.03-105.39,21.36-80.79,9.75-20.85,43.39-184.53,15.92-77.51,4.27-244.55.07-330.6"/>
    <path class="cls-1" d="M985.34,882.32c1.28,1.75,3.22.7,7.42-.28,15.69-3.98,34.14-8.61,52.06-13.16,21.64-5.51,42.66-10.71,49.73-12.63,1.46-.66,2.62-1.36,2.63-3.37-19.54-130.45-153.21-100.06-112.31,28.67l.47.76ZM1149.62,973.44c3.29-3.11,2.22-4.3,8.94-7.56,21.55-10.45,98.18-14.19,125.94-13.39,21.94.63,24.9,9.44,20.07,28.65-37.12,126.47-190.52,173.9-307.21,166.07-172.99-8.19-263.87-227.55-168.97-370.48,54.76-86.99,174.13-125.78,271.8-113.95,93.92,13.82,153.48,70.82,188.3,164.98,4.3,12.93,12.97,38.44-5.14,41.93-36.43,9.18-228.98,57.53-268.14,67.37-18.38,2.51-11.29,25.61-5.31,41.67,14.63,34.09,35,52.5,60.46,54.48,19.47,1.59,42.7-6.46,55.07-24.57,7.98-10.68,15.24-24.61,23.28-34.29l.9-.9Z"/>
    <path class="cls-1" d="M2534.22,885.38c-20.79.2-33.61-13.32-53.24-25.17-23.48-14.17-46.16-30.43-74.54-35.7-88.81-16.49-131.8,51.6-116.25,124.02,5.16,54.22,64.86,97.62,114.19,70.47,22.15-10.97,34.64-36.01,56.13-46.89l1.52-.67c14.21-5.98,31.34-3.38,46.81-.4,30.88,7.06,70.29,13.37,85.94,25.65,31.72,28.14-21,77.35-43.23,95.83-110.32,85.46-337.66,78.41-436.96-22.54-55.69-53.72-72.3-140.42-50.84-214.43,32.98-107.87,136.74-165.39,248-165.19,49.14-3.76,101.38-.88,145.47,14.5,37.25,12.99,74.93,34.6,97.27,62.14,15.12,18.62,25.7,26.69,28.86,48.55,4.9,33.96,1.78,34.94-12.39,55.81"/>
    <path class="cls-1" d="M1741.74,317.98c-50.78,67.26-80.04,162.03-81.84,265.11"/>
    <path class="cls-3" d="M2007.5,887.35c-17.39-123.93-51.83-180.64-174.74-209.82-40.03-8.62-77.08-41.19-79.2-63.55-4.3-45.22-4.63-66.58-4.63-66.73,0-10.01,1.56-33.89,1.58-42.43,10.26-.22,18.1-10.32,14.77-21.49-2.02-6.75-8.64-10.95-15.54-10.95h-160.17c-6.91,0-13.56,4.22-15.58,10.98-3.32,11.16,4.54,21.25,14.69,21.46v88.7c0,46.39-34.81,67.55-82.17,84-43.59,11.01-73.92,23.4-98.92,48.95-26.75,27.36-36.52,56.84-46.91,93.21-26.43,96.47-34.87,199.47-34.65,300.32,3.4,38.36,51.62,30.78,81.05,30.05h170.17c19.74,0,35.82-15.26,38.03-34.83l1.57.11c-.65,0-1.11-.62-1.41-1.6.08-1.01.29-1.98.29-3.01l-.04-14.7c.68-6.51,1.55-12.61,1.55-14.49l.61-96.28c1.29-9.71,8.09-14.27,10.57-15.78,17.38-10.53,31.76-9.15,47.04-9.15,17.89,0,38.06,5.24,44.44,15.77,3.5,6.4,3.99,24.16,3.62,48.93v86.81c0,21.37,16.94,38.7,37.84,38.7h170.81c29.11,0,90.81,9.83,100.99-30.03-3.28-78.23-12.37-156.05-25.68-233.14"/>
    <path class="cls-4" d="M1598.85,209.75c-34.62-23.03-49.99-60.4-36.21-80.33,13.79-19.94,53.09-17.23,86.14,8.15,17.63,13.55,22.71,22.53,36.95,42.71l56,78.38-92.2-28.2-.14-.02c-21.05-6.27-32.33-8.57-50.53-20.69"/>
    <path class="cls-4" d="M1713.15,83.9C1710.88,38.02,1733.25.33,1759.21,0c25.97-.32,48.74,36.78,47.98,82.75-.41,24.51-4.91,34.83-13.19,60.54l-31.75,100.46-34.57-101.01-.08-.14c-8.04-22.96-13.26-34.57-14.45-58.7"/>
    <path class="cls-4" d="M1899.46,105.56c37.8-33.32,85.39-39,103.39-15.93,17.99,23.06,1.69,68.79-38.24,99.47-21.31,16.36-33.23,19.37-60.93,29.48l-107.83,40.08,63.06-99.93.06-.16c14.2-22.87,20.61-35.48,40.49-53"/>
    <path class="cls-4" d="M1989.62,245.79c49.89,1.47,88.77,30.11,86.83,59.54-1.94,29.44-44.14,51.96-93.85,47.06-26.53-2.61-37.31-8.62-64.43-20.27l-106.04-44.78,112.47-30.27.16-.08c25.57-7.09,38.62-11.97,64.86-11.2"/>
    <path class="cls-4" d="M1912.57,403.64c25.45,29.96,29.88,67.79,12.39,82.16-17.49,14.36-52.31,1.53-75.75-30.14-12.5-16.9-14.82-26.37-22.58-48.36l-30.77-85.63,76.16,49.87.12.05c17.44,11.23,27.04,16.29,40.43,32.06"/>
  </g>
</svg>