<?xml version="1.0" encoding="UTF-8"?>
<svg id="Layer_1" xmlns="http://www.w3.org/2000/svg" xmlns:xlink="http://www.w3.org/1999/xlink" viewBox="0 0 2619.49 1158.14">
  <defs>
    <style>
      .cls-1 {
        fill: #e1d4c1;
      }

      .cls-2 {
        fill: #bdb0a0;
      }

      .cls-3 {
        fill: none;
      }

      .cls-4 {
        fill: #a3add8;
      }

      .cls-5 {
        clip-path: url(#clippath);
      }
    </style>
    <clipPath id="clippath">
      <rect class="cls-3" width="2619.49" height="1158.14"/>
    </clipPath>
  </defs>
  <g class="cls-5">
    <path class="cls-1" d="M21.09,258.58c-2.56-40.31,10.06-71.15,88.61-64.75,90.08,7.34,165.18,1.03,217.78,5.12,62.93,4.89,31.33,74.01,18.57,146.94-9.59,54.77-19.81,101.72-18.4,154.87,3.95,149.26,156.11,131.62,127.26-83.61-6.86-51.15-20.76-104.06-15.42-156.49,1.35-39.9,21.82-65.7,67.97-65.39,63.41-2.97,146.01-1.9,208.6-.69,52.06.9,56.09,21.13,77.06,56.8,10.43,17.76-37.98,146.08-44.24,195.57-9.8,77.46-15.35,124.86-15.47,154.69-.39,91.57,12.59,153.05,12.02,247.56-.94,34.97.22,131.38,5.39,162.87,11.48,69.95,29.02,78.29,28.24,115.48-.69,33.31-9.4,30.59-64.99,30.5-43.97-.07-89.32-4.57-134.22-4.89-54.56-.42,1.93.08-94.54-.7-53.15-.42-33.33-117.18-18.57-163.51,13.83-43.59,22.09-124.44,5.08-169.6-18.74-54.22-114.66-56.7-137.71-4.45-20.62,46.56-2.6,97.33,3.94,143.54,7.7,54.45,25.53,125.5,7.43,180.59l-6.76,7.14c-4.69,4.98-11.64,7.54-18.74,6.83-54.53-5.42-146.48-4.56-210.09-1.09-.76.04-1.54.04-2.32,0-33.49-1.85-49.05,2.84-90.64-9.3-28.34-8.27-15.46-55.18-2.04-106,21.48-81.26,9.8-20.98,43.62-185.57,16.02-77.96,4.3-245.93.07-332.48"/>
    <path class="cls-1" d="M990.95,887.34c1.29,1.76,3.24.7,7.46-.28,15.78-4.01,34.33-8.67,52.37-13.23,21.76-5.53,42.9-10.77,50.01-12.69,1.47-.67,2.64-1.38,2.64-3.4-19.64-131.18-154.09-100.63-112.96,28.84l.47.76ZM1156.16,978.97c3.31-3.14,2.24-4.32,8.99-7.61,21.68-10.51,98.74-14.27,126.65-13.47,22.07.64,25.04,9.5,20.19,28.81-37.34,127.18-191.62,174.89-308.96,167.01-173.97-8.23-265.37-228.84-169.93-372.6,55.08-87.48,175.11-126.49,273.34-114.59,94.46,13.89,154.36,71.22,189.38,165.91,4.32,13,13.05,38.66-5.17,42.17-36.63,9.22-230.29,57.85-269.66,67.75-18.49,2.52-11.35,25.75-5.34,41.89,14.72,34.29,35.18,52.81,60.8,54.8,19.58,1.59,42.95-6.5,55.38-24.7,8.03-10.74,15.33-24.75,23.42-34.49l.91-.91Z"/>
    <path class="cls-1" d="M2548.64,890.41c-20.91.2-33.8-13.39-53.54-25.31-23.62-14.26-46.43-30.6-74.96-35.9-89.32-16.58-132.55,51.89-116.91,124.71,5.19,54.53,65.23,98.18,114.84,70.88,22.27-11.04,34.84-36.21,56.44-47.16l1.54-.67c14.29-6.01,31.51-3.41,47.07-.41,31.06,7.09,70.69,13.44,86.43,25.78,31.91,28.3-21.11,77.8-43.48,96.38-110.95,85.96-339.57,78.85-439.45-22.67-56-54.03-72.7-141.22-51.13-215.65,33.17-108.49,137.52-166.34,249.43-166.12,49.41-3.78,101.94-.89,146.3,14.58,37.45,13.07,75.36,34.81,97.83,62.5,15.19,18.73,25.85,26.85,29.02,48.82,4.93,34.15,1.79,35.13-12.45,56.12"/>
    <path class="cls-1" d="M1751.64,319.79c-51.08,67.64-80.5,162.95-82.31,266.62"/>
    <path class="cls-2" d="M2018.92,892.4c-17.49-124.64-52.12-181.67-175.74-211.01-40.26-8.67-77.51-41.42-79.65-63.91-4.32-45.48-4.65-66.96-4.65-67.11,0-10.07,1.57-34.08,1.58-42.67,10.32-.22,18.21-10.38,14.86-21.61-2.04-6.78-8.69-11.01-15.63-11.01h-161.08c-6.95,0-13.64,4.24-15.67,11.04-3.35,11.23,4.57,21.36,14.77,21.58v89.2c0,46.66-35,67.95-82.64,84.49-43.82,11.07-74.34,23.53-99.47,49.23-26.9,27.51-36.74,57.15-47.18,93.74-26.57,97.02-35.07,200.6-34.85,302.03,3.42,38.57,51.91,30.96,81.52,30.21h171.13c19.86,0,36.02-15.34,38.25-35.03l1.57.12c-.66,0-1.11-.62-1.42-1.62.08-1.01.3-1.99.3-3.03l-.05-14.78c.69-6.54,1.55-12.67,1.55-14.58l.62-96.83c1.3-9.77,8.14-14.35,10.63-15.87,17.49-10.6,31.95-9.2,47.31-9.2,18,0,38.28,5.27,44.7,15.86,3.51,6.43,4.01,24.29,3.64,49.2v87.31c0,21.49,17.04,38.91,38.06,38.91h171.78c29.28,0,91.32,9.89,101.57-30.19-3.3-78.67-12.44-156.93-25.82-234.47"/>
    <path class="cls-4" d="M1607.95,210.93c-34.82-23.17-50.28-60.74-36.41-80.79,13.86-20.05,53.39-17.33,86.61,8.2,17.73,13.62,22.85,22.66,37.17,42.95l56.31,78.82-92.72-28.37h-.14c-21.17-6.32-32.51-8.64-50.82-20.82"/>
    <path class="cls-4" d="M1722.9,84.37C1720.62,38.24,1743.11.32,1769.23,0c26.11-.32,49.01,37,48.24,83.21-.41,24.66-4.93,35.04-13.26,60.89l-31.93,101.04-34.77-101.59-.09-.14c-8.09-23.09-13.33-34.77-14.53-59.04"/>
    <path class="cls-4" d="M1910.27,106.16c38.01-33.51,85.88-39.22,103.97-16.02,18.1,23.2,1.71,69.18-38.46,100.03-21.43,16.46-33.41,19.48-61.27,29.64l-108.44,40.32,63.41-100.49.06-.16c14.29-23.01,20.72-35.68,40.73-53.31"/>
    <path class="cls-4" d="M2000.94,247.19c50.18,1.48,89.28,30.28,87.32,59.89-1.95,29.6-44.38,52.24-94.38,47.32-26.68-2.64-37.52-8.67-64.8-20.38l-106.64-45.04,113.12-30.44.15-.08c25.71-7.13,38.83-12.04,65.23-11.26"/>
    <path class="cls-4" d="M1923.46,405.93c25.59,30.14,30.06,68.18,12.46,82.62-17.6,14.45-52.62,1.54-76.19-30.31-12.58-17-14.9-26.52-22.71-48.64l-30.94-86.11,76.59,50.16.13.05c17.54,11.29,27.19,16.39,40.66,32.24"/>
  </g>
</svg>