<?xml version="1.0" encoding="UTF-8"?>
<svg id="Layer_1" xmlns="http://www.w3.org/2000/svg" xmlns:xlink="http://www.w3.org/1999/xlink" viewBox="0 0 2160.52 2508.32">
  <defs>
    <style>
      .cls-1 {
        fill: #e1d4c1;
      }

      .cls-2 {
        fill: #bdb0a0;
      }

      .cls-3 {
        fill: none;
      }

      .cls-4 {
        fill: #a3add8;
      }

      .cls-5 {
        clip-path: url(#clippath);
      }
    </style>
    <clipPath id="clippath">
      <rect class="cls-3" width="2160.51" height="2508.32"/>
    </clipPath>
  </defs>
  <g class="cls-5">
    <path class="cls-1" d="M1356.18,2478.53c-7.46,16.55-25.26,15.97-54.89,16.02h-72.71c-25.9-.02-50.5,0-75.23,0-40.35-1.69-61.86,6.69-70.39-28.16-5.13-25.33-4.03-55.32,3.76-79.59,6.65-22.94,20.3-36.48,28.74-57.52,12.59-30.63,12.64-83.42,1.96-113.53-12.31-32.18-33.66-51.31-36.54-90.74-2.59-23.69-.38-61.38,13.84-71.36,29.24-16.23,78.42-5.6,113.17-8.53,18.7.14,36.84-.42,54.98.5,40.32,2.37,37.08,39.32,60.92,41.18,25.79.96,57.52-32.28,82.93-38.38,43.5-13.03,94.69-8.31,129.52,18.67,54.38,41.45,57.77,129.24,60.12,204.8-.58,53.88,28.61,80.69,38.96,129.3,7.23,43.69,4.88,96.54-41.58,92.9-44.04-.34-109.58,3.04-155.99-1.74-34.88-5.3-25.57-61.53-27.42-94.7-1.51-55.64,5.33-137.06-14.74-172.6-28.55-48.14-76.02-20.47-80.71,34.82-3.35,20.6-2.27,42.58,4.77,61.63,9.99,28.59,27.59,36.98,36.87,67.29,8.1,26.78,9.12,62.71.24,88.43l-.6,1.3Z"/>
    <path class="cls-1" d="M14.31,2060.73c-1.74-20.05,6.82-35.4,60.11-32.22,61.11,3.65,112.06.52,147.74,2.56,42.69,2.43,21.26,36.81,12.59,73.1-6.51,27.25-13.42,50.62-12.48,77.05,2.68,74.28,105.91,65.5,86.33-41.59-4.66-25.46-14.08-51.78-10.46-77.87.92-19.85,14.8-32.69,46.11-32.53,43.03-1.49,99.05-.96,141.52-.34,35.3.44,38.05,10.5,52.27,28.25,7.09,8.84-25.76,72.69-30.01,97.32-6.65,38.53-10.41,62.13-10.5,76.96-.25,45.56,8.54,76.16,8.15,123.17-.63,17.4.16,65.37,3.67,81.05,7.78,34.8,19.67,38.96,19.16,57.46-.47,16.57-6.38,15.22-44.1,15.18-29.83-.03-60.58-2.27-91.05-2.45-37.01-.2,1.32.05-64.13-.34-36.04-.2-22.61-58.3-12.59-81.35,9.37-21.7,14.97-61.92,3.43-84.39-12.7-26.98-77.77-28.2-93.4-2.21-14,23.17-1.76,48.43,2.67,71.42,5.22,27.09,17.32,62.43,5.05,89.84l-4.58,3.56c-3.18,2.48-7.9,3.75-12.71,3.4-37-2.7-99.38-2.27-142.52-.55-.52.03-1.05.02-1.57,0-22.73-.92-33.28,1.41-61.5-4.62-19.22-4.12-10.49-27.45-1.38-52.74,14.58-40.43,6.65-10.44,29.6-92.34,10.86-38.78,2.92-122.37.05-165.42"/>
    <path class="cls-1" d="M747.23,2245.71c1.19,1.72,2.95.74,6.73-.14,14.22-3.59,30.92-7.79,47.14-11.9,19.6-4.97,38.61-9.67,45.02-11.41,1.32-.61,2.35-1.29,2.32-3.25-20.05-127.38-141.14-100.14-101.67,25.96l.45.74ZM898.28,2337.34c2.93-2.98,1.94-4.15,8-7.2,19.42-9.81,89.06-12.1,114.33-10.83,19.97,1,22.81,9.63,18.77,28.25-31.54,122.52-170.25,166.02-276.53,156.33-157.52-11.02-244.08-226.25-160.25-363.8,48.27-83.75,156.17-119.43,245.24-106.18,85.69,15.11,140.87,71.68,174.22,163.98,4.14,12.68,12.46,37.67-3.93,40.74-32.98,8.29-207.3,52-242.74,60.91-16.68,2.1-9.81,24.74-4.11,40.48,13.92,33.45,32.76,51.75,55.97,54.12,17.75,1.9,38.74-5.53,49.66-22.95,7.07-10.25,13.44-23.7,20.58-32.98l.8-.86Z"/>
    <path class="cls-1" d="M2097.66,2234.12c-18.55.2-29.99-13.03-47.5-24.61-20.96-13.87-41.18-29.77-66.49-34.93-79.25-16.13-117.59,50.48-103.72,121.32,4.59,53.04,57.86,95.49,101.87,68.95,19.75-10.75,30.9-35.23,50.07-45.89l1.35-.64c12.68-5.85,27.95-3.32,41.76-.41,27.54,6.91,62.71,13.07,76.68,25.08,28.3,27.53-18.73,75.67-38.58,93.76-98.4,83.61-301.23,76.69-389.82-22.06-49.68-52.55-64.5-137.38-45.35-209.77,29.41-105.52,121.98-161.8,221.25-161.6,43.83-3.68,90.44-.86,129.79,14.19,33.22,12.71,66.85,33.85,86.77,60.8,13.48,18.22,22.94,26.12,25.76,47.49,4.37,33.22,1.57,34.18-11.05,54.6"/>
    <path class="cls-1" d="M1107,517.48c-82.9,109.46-130.64,263.69-133.58,431.43"/>
    <path class="cls-2" d="M1540.76,1444.07c-28.39-201.68-84.59-293.98-285.21-341.46-65.33-14.03-125.79-67.02-129.26-103.42-7.02-73.59-7.56-108.34-7.56-108.58,0-16.3,2.56-55.15,2.57-69.06,16.76-.36,29.55-16.79,24.1-34.96-3.29-10.97-14.09-17.84-25.35-17.84h-261.41c-11.27,0-22.12,6.87-25.41,17.87-5.44,18.15,7.4,34.57,23.95,34.93v144.35c0,75.5-56.8,109.93-134.1,136.7-71.13,17.92-120.65,38.1-161.44,79.67-43.66,44.51-59.62,92.48-76.55,151.69-43.14,156.99-56.92,324.61-56.56,488.73,5.55,62.43,84.25,50.09,132.28,48.9h277.75c32.22,0,58.46-24.83,62.07-56.69l2.56.17c-1.07,0-1.79-1-2.3-2.62.13-1.65.49-3.21.49-4.89l-.08-23.92c1.11-10.58,2.52-20.51,2.52-23.58l1-156.69c2.12-15.8,13.2-23.23,17.26-25.68,28.38-17.15,51.83-14.89,76.77-14.89,29.21,0,62.11,8.53,72.54,25.66,5.71,10.41,6.51,39.32,5.91,79.62v141.28c0,34.77,27.65,62.97,61.77,62.97h278.77c47.52,0,148.21,15.99,164.84-48.88-5.35-127.3-20.19-253.95-41.9-379.4"/>
    <path class="cls-4" d="M873.8,341.33c-56.5-37.48-81.6-98.29-59.1-130.73,22.51-32.45,86.65-28.05,140.58,13.26,28.78,22.04,37.08,36.67,60.33,69.51l91.4,127.56-150.48-45.92-.24-.02c-34.36-10.21-52.75-13.95-82.48-33.67"/>
    <path class="cls-4" d="M1060.34,136.53C1056.64,61.87,1093.14.51,1135.53.01c42.39-.52,79.55,59.85,78.31,134.65-.66,39.91-8.01,56.69-21.54,98.53l-51.81,163.5-56.42-164.4-.14-.22c-13.12-37.36-21.63-56.26-23.58-95.54"/>
    <path class="cls-4" d="M1364.43,171.79c61.69-54.24,139.37-63.48,168.73-25.93,29.36,37.53,2.77,111.95-62.41,161.86-34.77,26.64-54.23,31.53-99.44,47.99l-175.99,65.23,102.92-162.62.09-.27c23.19-37.23,33.64-57.74,66.09-86.27"/>
    <path class="cls-4" d="M1511.57,400c81.43,2.38,144.89,48.99,141.72,96.9-3.17,47.91-72.05,84.55-153.18,76.57-43.3-4.25-60.91-14.02-105.16-32.97l-173.07-72.87,183.56-49.27.27-.13c41.75-11.54,63.04-19.49,105.87-18.23"/>
    <path class="cls-4" d="M1385.82,656.87c41.53,48.77,48.79,110.32,20.22,133.69-28.56,23.37-85.39,2.49-123.64-49.04-20.4-27.51-24.19-42.92-36.86-78.71l-50.21-139.35,124.32,81.16.2.08c28.45,18.28,44.12,26.53,65.97,52.17"/>
  </g>
</svg>